<?xml version="1.0" encoding="UTF-8"?>
<!-- Generated by Pixelmator Pro 4.2 -->
<svg width="528" height="392" viewBox="0 0 528 392" xmlns="http://www.w3.org/2000/svg">
    <path id="Pfad" fill="#000000" fill-opacity="0.85" stroke="none" d="M 262.75 391 C 330.75 391 341.75 340.25 381.5 340.25 C 422 340.25 428.5 391 506.5 391 L 507.752014 391 C 517.5 391 525.5 383 525.5 373.25 C 525.5 363.5 517.5 355.75 507.752014 355.75 L 506.5 355.75 C 479.5 355.75 464.5 344.5 445.752014 331.25 C 429.5 319.25 409.247986 305 381.5 305 C 352.75 305 332.25 320.25 316 332.25 C 298.75 345.5 285 355.75 262.75 355.75 C 240.25 355.75 226.75 345.5 209.5 332.25 C 193.25 320.25 172.75 305 144 305 C 116.25 305 96 319.25 79.75 331.25 C 61 344.5 45.75 355.75 19 355.75 L 17.75 355.75 C 7.75 355.75 0 363.5 0 373.25 C 0 383 7.75 391 17.75 391 L 19 391 C 96.75 391 103.5 340.25 144 340.25 C 183.75 340.25 194.5 391 262.75 391 Z"/>
</svg>
