<?xml version="1.0" encoding="UTF-8"?>
<!-- Generated by Pixelmator Pro 4.2 -->
<svg width="528" height="392" viewBox="0 0 528 392" xmlns="http://www.w3.org/2000/svg">
    <path id="Pfad" fill="#000000" fill-opacity="0.85" stroke="none" d="M 262.75 239.75 C 330.75 239.75 341.75 189 381.5 189 C 422 189 428.5 239.75 506.5 239.75 L 507.752014 239.75 C 517.5 239.75 525.5 232 525.5 222.25 C 525.5 212.5 517.5 204.5 507.752014 204.5 L 506.5 204.5 C 479.5 204.5 464.5 193.5 445.752014 180 C 429.5 168.25 409.247986 153.75 381.5 153.75 C 352.75 153.75 332.25 169.25 316 181.25 C 298.75 194.25 285 204.5 262.75 204.5 C 240.25 204.5 226.75 194.25 209.5 181.25 C 193.25 169.25 172.75 153.75 144 153.75 C 116.25 153.75 96 168.25 79.75 180 C 61 193.5 45.75 204.5 19 204.5 L 17.75 204.5 C 7.75 204.5 0 212.5 0 222.25 C 0 232 7.75 239.75 17.75 239.75 L 19 239.75 C 96.75 239.75 103.5 189 144 189 C 183.75 189 194.5 239.75 262.75 239.75 Z"/>
</svg>
