<?xml version="1.0" encoding="UTF-8"?>
<!-- Generated by Pixelmator Pro 4.2 -->
<svg width="528" height="392" viewBox="0 0 528 392" xmlns="http://www.w3.org/2000/svg">
    <path id="Pfad" fill="#000000" fill-opacity="0.85" stroke="none" d="M 262.75 88.75 C 330.75 88.75 341.75 38 381.5 38 C 422 38 428.5 88.75 506.5 88.75 L 507.752014 88.75 C 517.5 88.75 525.5 80.75 525.5 71 C 525.5 61.25 517.5 53.5 507.752014 53.5 L 506.5 53.5 C 479.5 53.5 464.5 42.25 445.752014 29 C 429.5 17.25 409.247986 2.75 381.5 2.75 C 352.75 2.75 332.25 18 316 30.25 C 298.75 43.25 285 53.5 262.75 53.5 C 240.25 53.5 226.75 43.25 209.5 30.25 C 193.25 18 172.75 2.75 144 2.75 C 116.25 2.75 96 17.25 79.75 29 C 61 42.25 45.75 53.5 19 53.5 L 17.75 53.5 C 7.75 53.5 0 61.25 0 71 C 0 80.75 7.75 88.75 17.75 88.75 L 19 88.75 C 96.75 88.75 103.5 38 144 38 C 183.75 38 194.5 88.75 262.75 88.75 Z"/>
</svg>
